<!-- Convert image to SVG. Set width to 168 of the SVG and height to 65 -->

<svg version="1.0" xmlns="http://www.w3.org/2000/svg"
 width="168" height="65" viewBox="0 0 1000.000000 192.000000"
 preserveAspectRatio="xMidYMid meet">

<g transform="translate(0.000000,192.000000) scale(0.100000,-0.100000)"
fill="#d80e0e" stroke="none">
<path d="M675 1904 c-229 -25 -395 -93 -509 -210 -158 -160 -192 -413 -84
-617 71 -132 197 -229 503 -387 378 -195 428 -239 427 -382 0 -109 -71 -184
-196 -210 -43 -9 -56 -16 -56 -30 0 -17 16 -18 302 -16 l302 3 27 40 c95 138
105 363 23 503 -43 73 -153 180 -253 247 -53 35 -184 107 -291 160 -240 120
-323 173 -362 234 -27 41 -29 53 -26 113 4 75 21 107 78 146 60 41 103 47 320
47 169 -1 228 -5 333 -24 71 -12 130 -21 132 -19 5 5 9 317 4 321 -9 8 -181
47 -270 62 -97 15 -333 26 -404 19z"/>
<path d="M7570 1899 c-330 -38 -536 -194 -617 -467 -16 -51 -18 -129 -21 -720
l-3 -662 218 2 218 3 5 630 5 630 28 58 c70 142 253 203 550 181 71 -5 131 -7
133 -5 2 2 4 77 4 167 l0 162 -42 6 c-162 24 -346 30 -478 15z"/>
<path d="M8925 1904 c-202 -28 -316 -83 -429 -206 -76 -81 -142 -207 -181
-342 -22 -77 -235 -1248 -235 -1291 0 -13 29 -15 218 -13 l217 3 21 120 c12
66 30 164 39 218 l17 97 319 0 c175 0 320 3 323 8 2 4 16 75 31 157 14 83 28
158 31 168 5 16 -15 17 -315 17 -302 0 -321 1 -321 18 0 39 70 411 89 472 49
158 124 219 272 221 124 2 193 -37 246 -138 38 -73 51 -126 108 -448 25 -143
61 -348 80 -455 19 -107 45 -253 57 -325 l23 -130 218 -3 c198 -2 217 -1 217
14 0 24 -198 1146 -216 1222 -76 329 -263 542 -524 597 -75 16 -249 27 -305
19z"/>
<path d="M1660 1864 c0 -17 79 -479 106 -619 38 -198 112 -372 201 -474 67
-77 178 -146 285 -179 l88 -27 0 -257 0 -258 210 0 210 0 0 258 0 257 91 29
c115 36 221 106 290 189 65 80 132 218 163 337 23 85 136 706 136 745 0 13
-27 15 -209 15 -116 0 -212 -3 -214 -7 -3 -5 -30 -152 -61 -328 -58 -330 -72
-387 -112 -467 -36 -70 -78 -114 -146 -148 -53 -26 -72 -30 -143 -30 -100 0
-160 19 -218 70 -47 41 -99 130 -122 207 -8 27 -35 163 -59 303 -25 140 -51
287 -58 325 l-13 70 -213 3 c-190 2 -212 1 -212 -14z"/>
<path d="M3750 1843 c-18 -20 -45 -62 -59 -93 -23 -49 -26 -67 -26 -170 0
-109 2 -119 32 -183 70 -146 197 -243 558 -422 245 -122 312 -165 359 -232 54
-77 46 -188 -17 -259 -103 -118 -348 -141 -737 -68 -74 14 -143 27 -152 30
-17 5 -18 -7 -18 -160 l0 -165 83 -25 c212 -64 494 -91 679 -66 397 53 647
292 648 616 0 159 -49 281 -160 392 -92 93 -190 155 -452 287 -247 123 -300
156 -337 211 -34 49 -40 135 -13 184 23 42 81 84 140 101 34 9 42 16 42 35 l0
24 -269 0 -269 0 -32 -37z"/>
<path d="M4925 1858 c7 -33 55 -311 55 -320 0 -4 123 -9 273 -10 l272 -3 5
-505 c7 -559 6 -555 75 -697 68 -138 185 -227 362 -274 100 -27 330 -37 458
-20 151 20 135 -1 135 181 l0 158 -162 -1 c-147 -2 -170 0 -235 22 -83 27
-134 70 -167 140 -20 45 -21 59 -21 521 l0 475 293 3 292 2 0 175 0 175 -820
0 -820 0 5 -22z"/>
</g>
</svg>
